<svg xmlns="http://www.w3.org/2000/svg" height="48" viewBox="0 0 48 48" width="48"><path d="M24 47c-.173 0-.346-.044-.5-.134-.24-.138-5.914-3.447-11.68-8.778C3.978 30.835 0 23.668 0 16.788c0-9.276 6.28-13.5 12.113-13.5 4.5 0 9.53 2.57 11.887 8.228 2.357-5.657 7.39-8.23 11.887-8.23C41.72 3.286 48 7.513 48 16.786c0 6.883-3.977 14.05-11.82 21.303-5.766 5.33-11.44 8.64-11.68 8.777-.154.09-.327.135-.5.135zM12.113 5.288C7.243 5.288 2 8.888 2 16.788 2 30.65 20.674 42.782 24 44.832c3.323-2.05 22-14.193 22-28.046 0-7.9-5.242-11.5-10.113-11.5-4.473 0-9.58 3.062-10.905 9.903-.09.47-.503.81-.982.81s-.89-.34-.982-.81c-1.325-6.84-6.432-9.903-10.905-9.903z"/></svg>