<svg xmlns="http://www.w3.org/2000/svg" xmlns:xlink="http://www.w3.org/1999/xlink" width="48" height="288" viewBox="0 0 48 288"><svg height="48" viewBox="0 0 48 48" width="48" id="heart" y="0"><path d="M24 47c-.173 0-.346-.044-.5-.134-.24-.138-5.914-3.447-11.68-8.778C3.978 30.835 0 23.668 0 16.788c0-9.276 6.28-13.5 12.113-13.5 4.5 0 9.53 2.57 11.887 8.228 2.357-5.657 7.39-8.23 11.887-8.23C41.72 3.286 48 7.513 48 16.786c0 6.883-3.977 14.05-11.82 21.303-5.766 5.33-11.44 8.64-11.68 8.777-.154.09-.327.135-.5.135zM12.113 5.288C7.243 5.288 2 8.888 2 16.788 2 30.65 20.674 42.782 24 44.832c3.323-2.05 22-14.193 22-28.046 0-7.9-5.242-11.5-10.113-11.5-4.473 0-9.58 3.062-10.905 9.903-.09.47-.503.81-.982.81s-.89-.34-.982-.81c-1.325-6.84-6.432-9.903-10.905-9.903z"/></svg><svg height="48" viewBox="0 0 48 48" width="48" id="home" y="48"><path d="M42 48H28V35h-8v13H6V27c0-.552.447-1 1-1s1 .448 1 1v19h10V33h12v13h10V28c0-.552.447-1 1-1s1 .448 1 1v20zm5-21c-.25 0-.497-.092-.69-.277L24 5.383 1.69 26.723c-.398.38-1.03.37-1.413-.03-.382-.4-.367-1.032.03-1.414L24 2.615l23.69 22.66c.4.383.414 1.016.032 1.415-.196.207-.458.31-.722.31zm-8-12c-.553 0-1-.448-1-1V8h-6c-.553 0-1-.448-1-1s.447-1 1-1h8v8c0 .552-.447 1-1 1z"/></svg><svg height="48" viewBox="0 0 48 48" width="48" id="mail" y="96"><path d="M44 40H4c-2.206 0-4-1.794-4-4V12c0-2.206 1.794-4 4-4h40c2.206 0 4 1.794 4 4v24c0 2.206-1.794 4-4 4zM4 10c-1.103 0-2 .897-2 2v24c0 1.103.897 2 2 2h40c1.103 0 2-.897 2-2V12c0-1.103-.897-2-2-2H4zm20 19.19L6.457 17.84c-.464-.3-.597-.92-.297-1.383s.92-.596 1.383-.297L24 26.81l16.457-10.65c.464-.3 1.083-.167 1.383.297s.167 1.082-.297 1.383L24 29.19zM6 34c-.322 0-.64-.156-.832-.445-.307-.46-.183-1.08.277-1.387l9-6c.46-.307 1.08-.183 1.387.277.307.46.183 1.08-.277 1.387l-9 6C6.385 33.945 6.19 34 6 34zm36 0c-.19 0-.384-.055-.555-.168l-9-6c-.46-.307-.584-.927-.277-1.387.306-.46.926-.584 1.387-.277l9 6c.46.307.584.927.277 1.387-.192.29-.51.445-.833.445z"/></svg><svg height="48" viewBox="0 0 48 48" width="48" id="marker" y="144"><path d="M24 47.76l-.823-1.192C22.557 45.67 8 24.498 8 16 8 7.178 15.178 0 24 0s16 7.178 16 16c0 8.5-14.558 29.67-15.177 30.568L24 47.758zM24 2c-7.72 0-14 6.28-14 14 0 6.787 10.885 23.555 14 28.214C27.115 39.554 38 22.787 38 16c0-7.72-6.28-14-14-14zm0 21c-3.86 0-7-3.14-7-7s3.14-7 7-7 7 3.14 7 7-3.14 7-7 7zm0-12c-2.757 0-5 2.243-5 5s2.243 5 5 5 5-2.243 5-5-2.243-5-5-5z"/></svg><svg height="48" viewBox="0 0 48 48" width="48" id="monitor" y="192"><path d="M44 42H4c-2.206 0-4-1.874-4-4.177V8.177C0 5.874 1.794 4 4 4h40c2.206 0 4 1.874 4 4.177v29.646C48 40.126 46.206 42 44 42zM4 6c-1.103 0-2 .977-2 2.177v29.646C2 39.023 2.897 40 4 40h40c1.103 0 2-.977 2-2.177V8.177C46 6.977 45.103 6 44 6H4zm34 40H10c-.552 0-1-.448-1-1s.448-1 1-1h28c.552 0 1 .448 1 1s-.448 1-1 1zm-14 0c-.552 0-1-.448-1-1v-4c0-.552.448-1 1-1s1 .448 1 1v4c0 .552-.448 1-1 1z"/><circle cx="24" cy="37" r="2"/><path d="M1 32h46v2H1z"/></svg><svg height="48" viewBox="0 0 48 48" width="48" id="time" y="240"><path d="M42 2c2.206 0 4 1.794 4 4v36c0 2.206-1.794 4-4 4H6c-2.206 0-4-1.794-4-4V6c0-2.206 1.794-4 4-4h36m0-2H6C2.7 0 0 2.7 0 6v36c0 3.3 2.7 6 6 6h36c3.3 0 6-2.7 6-6V6c0-3.3-2.7-6-6-6zM24 8c8.822 0 16 7.178 16 16s-7.178 16-16 16S8 32.822 8 24 15.178 8 24 8m0-2C14.06 6 6 14.06 6 24s8.06 18 18 18 18-8.06 18-18S33.94 6 24 6zm6 19h-7V14c0-.553.448-1 1-1s1 .447 1 1v9h5c.552 0 1 .447 1 1s-.448 1-1 1z"/></svg></svg>