<svg xmlns="http://www.w3.org/2000/svg" height="48" viewBox="0 0 48 48" width="48"><path d="M44 40H4c-2.206 0-4-1.794-4-4V12c0-2.206 1.794-4 4-4h40c2.206 0 4 1.794 4 4v24c0 2.206-1.794 4-4 4zM4 10c-1.103 0-2 .897-2 2v24c0 1.103.897 2 2 2h40c1.103 0 2-.897 2-2V12c0-1.103-.897-2-2-2H4zm20 19.19L6.457 17.84c-.464-.3-.597-.92-.297-1.383s.92-.596 1.383-.297L24 26.81l16.457-10.65c.464-.3 1.083-.167 1.383.297s.167 1.082-.297 1.383L24 29.19zM6 34c-.322 0-.64-.156-.832-.445-.307-.46-.183-1.08.277-1.387l9-6c.46-.307 1.08-.183 1.387.277.307.46.183 1.08-.277 1.387l-9 6C6.385 33.945 6.19 34 6 34zm36 0c-.19 0-.384-.055-.555-.168l-9-6c-.46-.307-.584-.927-.277-1.387.306-.46.926-.584 1.387-.277l9 6c.46.307.584.927.277 1.387-.192.29-.51.445-.833.445z"/></svg>